<svg width="67" height="39" viewBox="0 0 67 39" fill="none" xmlns="http://www.w3.org/2000/svg">
<path d="M66.4029 34.0975C66.2228 33.796 65.1088 31.3754 59.7484 26.4003C54.1368 21.1907 54.8906 22.0366 61.6497 13.0286C65.7663 7.5426 67.4121 4.19235 66.897 2.76012C66.407 1.3949 63.3793 1.75505 63.3793 1.75505L53.3118 1.81368C53.3118 1.81368 52.5663 1.71317 52.0094 2.04401C51.4691 2.37066 51.1215 3.12446 51.1215 3.12446C51.1215 3.12446 49.526 7.3709 47.3986 10.9808C42.9134 18.5984 41.1169 19.0004 40.384 18.5272C38.6796 17.4258 39.1067 14.0965 39.1067 11.7346C39.1067 4.35149 40.2249 1.27345 36.9249 0.477765C35.8277 0.213933 35.0236 0.038045 32.2219 0.00873038C28.6288 -0.0289599 25.5843 0.0212938 23.8631 0.863044C22.7156 1.42421 21.832 2.67637 22.3722 2.74756C23.0381 2.8355 24.5457 3.15378 25.3456 4.24261C26.38 5.64552 26.3423 8.80313 26.3423 8.80313C26.3423 8.80313 26.9369 17.4928 24.9561 18.5733C23.5951 19.3145 21.7315 17.8027 17.7321 10.8887C15.6843 7.34996 14.1348 3.43436 14.1348 3.43436C14.1348 3.43436 13.8375 2.70568 13.3056 2.31621C12.6607 1.84299 11.7561 1.69223 11.7561 1.69223L2.18278 1.75086C2.18278 1.75086 0.746365 1.79274 0.218701 2.41672C-0.250334 2.9737 0.181011 4.12116 0.181011 4.12116C0.181011 4.12116 7.67719 21.6555 16.1617 30.496C23.9468 38.5994 32.7831 38.0675 32.7831 38.0675H36.7867C36.7867 38.0675 37.9969 37.9335 38.6125 37.2677C39.1821 36.6563 39.1612 35.5088 39.1612 35.5088C39.1612 35.5088 39.0816 30.1358 41.5775 29.3443C44.0358 28.5654 47.1934 34.5372 50.5394 36.8363C53.0689 38.5743 54.9911 38.1932 54.9911 38.1932L63.9404 38.0675C63.9404 38.0675 68.6224 37.7786 66.4029 34.0975Z" fill="white"/>
</svg>
