<svg width="1920" height="2246" viewBox="0 0 1920 2246" fill="none" xmlns="http://www.w3.org/2000/svg">
<g clip-path="url(#clip0_25_594)">
<rect width="1920" height="1128" fill="white"/>
<path d="M1468.5 869C1637.5 638 1745 625 1918.5 654.5H2007.5L2007.5 1427.5L1366 1156.5C1366 1156.5 1267.08 1144.31 1468.5 869Z" fill="#D4E9F4"/>
<circle cx="469" cy="173" r="218.5" stroke="#D4E9F4" stroke-width="33"/>
<path d="M1366.02 35.3689C1415.22 -13.4346 1428.86 -66.4809 1429.54 -86.9035C1438.35 -151.788 1819.88 -311.128 1893 -246C2363.61 173.149 1756.55 51.9661 1666 243.206C1571.08 443.689 1445.52 460.676 1356.04 453.965C1276.5 448 1134.85 370.689 1148.89 243.206C1162.94 115.724 1304.52 96.3733 1366.02 35.3689Z" fill="#508FDD"/>
<circle cx="235" cy="1385" r="331" fill="#C4C4C4"/>
<circle cx="325" cy="1057" r="467" fill="#D4E9F4"/>
<path d="M330 815C232.367 913.55 99.5 861 -45 975V1185.5C-45 1185.5 448 1243 731 1128C1005.59 1016.42 1201.47 755.285 1095.5 509.5C1024.11 343.913 770.5 181.5 770.5 181.5C625.5 106.5 481.626 233.067 404 312C255.5 463 436.5 707.5 330 815Z" fill="#508FDD"/>
<circle cx="21" cy="129" r="129" fill="#508FDD"/>
<circle cx="66" cy="363" r="45" fill="#D4E9F4"/>
<circle cx="1643" cy="485.348" r="45" transform="rotate(117.209 1643 485.348)" fill="#D4E9F4"/>
<circle cx="221" cy="371" r="13" fill="#508FDD"/>
<circle cx="0.5" cy="656.5" r="33.5" fill="#508FDD"/>
<circle cx="1920.5" cy="961.5" r="33.5" fill="#508FDD"/>
<circle cx="1565.02" cy="619.539" r="13" transform="rotate(117.209 1565.02 619.539)" fill="#508FDD"/>
<path d="M1937.97 -14.4999C1930.3 2.67852 1846.34 99.7797 1870.52 169.914C1900.73 257.582 1897.57 300.208 1816 310.011C1734.44 319.814 1694.92 409.825 1733.57 479.882C1772.22 549.939 1877.92 572.066 1937.97 538.933C1998.02 505.801 2009.71 492.194 2052.71 458.961C2141.24 390.541 2188.06 382.704 2250.02 412.607L2253.4 413.583L2325.44 164.211L1937.97 -14.4999Z" fill="#D4E9F4"/>
</g>
<g clip-path="url(#clip1_25_594)">
<rect width="1920" height="1128" transform="matrix(1 0 0 -1 0 2256)" fill="white"/>
<path d="M1427.5 1311.5C1596.5 1542.5 1745 1631 1918.5 1601.5H2007.5L2007.5 882.5L1444 1001.5C1444 1001.5 1226.08 1036.19 1427.5 1311.5Z" fill="#D4E9F4"/>
<circle cx="235" cy="235" r="218.5" transform="matrix(1 0 0 -1 234 2318)" stroke="#D4E9F4" stroke-width="33"/>
<path d="M1366.02 2220.63C1415.22 2269.43 1428.86 2322.48 1429.54 2342.9C1438.35 2407.79 1819.88 2567.13 1893 2502C2363.61 2082.85 1756.55 2204.03 1666 2012.79C1571.08 1812.31 1445.52 1795.32 1356.04 1802.03C1276.5 1808 1134.85 1885.31 1148.89 2012.79C1162.94 2140.28 1304.52 2159.63 1366.02 2220.63Z" fill="#508FDD"/>
<circle cx="331" cy="331" r="331" transform="matrix(1 0 0 -1 -96 1202)" fill="#C4C4C4"/>
<circle cx="467" cy="467" r="467" transform="matrix(1 0 0 -1 -145 1546)" fill="#D4E9F4"/>
<path d="M329.853 1477.61C232.258 1384.62 99.4433 1434.2 -45 1326.63V1128H731C731 1128 340.131 1284.32 582.5 1363.5C858 1453.5 701.5 1673.5 701.5 1673.5C657.5 1728.5 519 1856.5 414 1830C214.496 1779.65 436.311 1579.05 329.853 1477.61Z" fill="#508FDD"/>
<circle cx="129" cy="129" r="129" transform="matrix(1 0 0 -1 -108 2256)" fill="#508FDD"/>
<circle cx="45" cy="45" r="45" transform="matrix(1 0 0 -1 21 1938)" fill="#D4E9F4"/>
<circle cx="45" cy="45" r="45" transform="matrix(-0.45724 -0.889344 -0.889344 0.45724 1703.6 1790.1)" fill="#D4E9F4"/>
<circle cx="13" cy="13" r="13" transform="matrix(1 0 0 -1 208 1898)" fill="#508FDD"/>
<circle cx="33.5" cy="33.5" r="33.5" transform="matrix(1 0 0 -1 -33 1633)" fill="#508FDD"/>
<circle cx="33.5" cy="33.5" r="33.5" transform="matrix(1 0 0 -1 1887 1328)" fill="#508FDD"/>
<circle cx="13" cy="13" r="13" transform="matrix(-0.45724 -0.889344 -0.889344 0.45724 1582.52 1642.08)" fill="#508FDD"/>
<path d="M1937.97 2270.5C1930.3 2253.32 1846.34 2156.22 1870.52 2086.09C1900.73 1998.42 1897.57 1955.79 1816 1945.99C1734.44 1936.19 1694.92 1846.18 1733.57 1776.12C1772.22 1706.06 1877.92 1683.93 1937.97 1717.07C1998.02 1750.2 2009.71 1763.81 2052.71 1797.04C2141.24 1865.46 2188.06 1873.3 2250.02 1843.39L2253.4 1842.42L2325.44 2091.79L1937.97 2270.5Z" fill="#D4E9F4"/>
</g>
<defs>
<clipPath id="clip0_25_594">
<rect width="1920" height="1128" fill="white"/>
</clipPath>
<clipPath id="clip1_25_594">
<rect width="1920" height="1128" fill="white" transform="matrix(1 0 0 -1 0 2256)"/>
</clipPath>
</defs>
</svg>
